<svg width="54" height="55" viewBox="0 0 54 55" fill="none" xmlns="http://www.w3.org/2000/svg">
<path d="M32.1301 46.3355C32.2236 46.9389 32.6025 47.4652 33.1548 47.7585C33.7071 48.0523 34.3691 48.0795 34.9451 47.832L43.4683 44.1876C43.8905 44.0076 44.1006 43.5456 43.9529 43.1224L39.676 30.8221C38.9915 28.8815 36.9512 27.7112 34.8639 28.0618L33.5272 28.294C31.238 28.6805 29.6913 30.7724 30.0523 32.9949L32.1301 46.3355ZM34.226 46.2534C34.1583 46.2842 34.0795 46.2811 34.0147 46.2447C33.9474 46.2104 33.9013 46.146 33.8919 46.0726L31.8083 32.743C31.7655 32.4559 31.7757 32.1638 31.8389 31.8803L33.3457 33.0328C34.0734 33.582 34.6163 34.3282 34.9051 35.1771L38.1708 44.5714L34.226 46.2534ZM33.8376 29.9985L35.1739 29.7663C35.3175 29.7414 35.4632 29.7292 35.6092 29.7292C36.6824 29.732 37.6361 30.3929 37.9844 31.3757L42.0043 42.9337L39.8061 43.873L36.5935 34.6327C36.1953 33.4647 35.4481 32.4374 34.4462 31.6813L32.8126 30.4304C33.1161 30.2133 33.4664 30.0656 33.8376 29.9985Z" fill="#B3B5B7"/>
<path d="M2.28656 8.29535L15.7286 12.1911C15.9103 12.2442 16.0792 12.3329 16.2247 12.4521L20.9659 16.3373L21.7303 16.9659L27.9249 48.6355C28.238 50.2453 29.2806 51.627 30.757 52.3873C32.2334 53.1472 33.9818 53.2032 35.5052 52.5389L44.1425 48.7858C44.984 49.7662 46.3722 50.101 47.5796 49.6147L52.1354 47.7766C53.6695 47.1581 54.4034 45.434 53.7754 43.9251L45.4785 24.0047L46.0941 23.3052C47.2425 21.9968 47.0979 20.0214 45.771 18.8882L36.2779 10.7985C35.6387 10.2542 34.806 9.9822 33.9633 10.0422C33.1202 10.1022 32.336 10.4892 31.783 11.1178L30.2477 12.8647L26.797 10.0369H26.7917L20.4006 4.92368C20.073 4.66105 19.6951 4.46569 19.2896 4.34897L4.72846 0.127789C3.04229 -0.359379 1.27329 0.589018 0.775929 2.24709L0.131459 4.39963C-0.109188 5.19725 -0.0168851 6.05608 0.387351 6.78724C0.791588 7.51799 1.47479 8.06068 2.28656 8.29535ZM31.0314 14.6841L33.1453 12.2794C33.3856 12.0063 33.7263 11.8381 34.0931 11.8117C34.4594 11.7858 34.8216 11.9041 35.0993 12.1404L44.5925 20.2269C45.1694 20.7194 45.232 21.5778 44.733 22.1464L43.7556 23.2581C43.5331 23.5106 43.4738 23.8649 43.6023 24.1737L52.1098 44.5918C52.3612 45.1953 52.0674 45.8851 51.4538 46.1323L46.8964 47.9695C46.6013 48.0883 46.2704 48.0871 45.9762 47.9659C45.6824 47.8447 45.4496 47.6133 45.3289 47.3231C45.237 47.1018 45.0581 46.9263 44.8323 46.8367C44.6069 46.7472 44.3543 46.7508 44.1318 46.8477L34.7779 50.9124C33.756 51.3566 32.5841 51.3181 31.5947 50.8083C30.6049 50.2984 29.9057 49.3727 29.6947 48.2934L23.4395 16.3142C23.4 16.1135 23.2912 15.9324 23.1317 15.8015L22.849 15.5696L26.2976 11.9325L29.7759 14.7817C30.1525 15.0898 30.7108 15.0448 31.0314 14.6808V14.6841ZM1.85801 4.9026L2.50084 2.74844C2.60426 2.40151 2.84409 2.1097 3.16673 1.93663C3.48938 1.76398 3.86848 1.72426 4.2208 1.8268L18.7729 6.04027C18.9493 6.09134 19.1133 6.17605 19.2554 6.28994L24.9048 10.8054L21.4645 14.4356L17.3768 11.0842C17.043 10.8098 16.6557 10.606 16.2383 10.4856L2.79423 6.59269C2.06116 6.37991 1.6425 5.62363 1.85801 4.9026Z" fill="#B3B5B7"/>
<path d="M6.5002 29.9985C8.23533 30.035 9.91097 29.408 11.1383 28.2627C12.3656 27.1173 13.0379 25.5536 12.9984 23.934C12.9984 21.1722 9.40186 16.1848 7.90258 14.5707C7.54051 14.2066 7.03225 14 6.5002 14C5.96771 14 5.45945 14.2066 5.09738 14.5707C3.5981 16.1848 0.00161573 21.1722 0.00161573 23.934C-0.0374811 25.5536 0.63439 27.1173 1.86169 28.2627C3.08899 29.408 4.76463 30.035 6.5002 29.9985ZM6.5002 15.7037C8.13759 17.4661 11.1417 21.9285 11.1417 23.934C11.1846 25.0948 10.7095 26.2199 9.82938 27.0412C8.9497 27.8625 7.74365 28.3059 6.5002 28.2658C5.25632 28.3059 4.05069 27.8625 3.17059 27.0412C2.29048 26.2199 1.81537 25.0948 1.85829 23.934C1.85829 21.9292 4.86323 17.4669 6.5002 15.7037Z" fill="#B3B5B7"/>
<path d="M25.6026 16.0311C25.3969 16.0977 25.2201 16.2646 25.1117 16.4953C25.0034 16.7265 24.9722 17.0025 25.0253 17.2624L25.4251 19.2403C25.5159 19.687 25.8343 19.9995 26.1993 20C26.2663 20.0004 26.3329 19.9898 26.3977 19.9685C26.8257 19.8308 27.0841 19.2806 26.975 18.7401L26.5753 16.7616C26.5229 16.5018 26.3911 16.279 26.2088 16.1421C26.0265 16.0052 25.8084 15.965 25.6026 16.0311Z" fill="#B3B5B7"/>
<path d="M27.0234 22.0748L28.2674 27.3261C28.361 27.7207 28.7145 28 29.1212 28C29.1895 28.0004 29.257 27.9924 29.3233 27.9763C29.7941 27.8658 30.0866 27.3958 29.977 26.9258L28.7334 21.6745C28.6611 21.37 28.4317 21.1268 28.1311 21.0371C27.8306 20.9469 27.5048 21.0239 27.2761 21.2382C27.0479 21.453 26.9515 21.7727 27.0234 22.0772V22.0748Z" fill="#B3B5B7"/>
</svg>
