<svg width="71" height="94" viewBox="0 0 71 94" fill="none" xmlns="http://www.w3.org/2000/svg">
<path d="M44.1292 57.291L12.3454 57.2864C11.4688 57.2864 10.7564 57.9971 10.7564 58.8754C10.7564 59.752 11.4671 60.4644 12.3454 60.4644L44.1292 60.469C45.0059 60.469 45.7182 59.7583 45.7182 58.88C45.7181 58.0032 45.0075 57.291 44.1292 57.291Z" fill="#ECD774"/>
<path d="M37.7688 63.6465H18.7013C17.823 63.6465 17.1123 64.3572 17.1123 65.2355C17.1123 66.1138 17.823 66.8245 18.7013 66.8245H37.7688C38.647 66.8245 39.3578 66.1138 39.3578 65.2355C39.3576 64.3571 38.647 63.6465 37.7688 63.6465Z" fill="#ECD774"/>
<path d="M28.6011 19.0679C18.9634 19.0679 11.1226 26.9087 11.1226 36.5463C11.1226 46.184 18.9634 54.0247 28.6011 54.0247C38.2388 54.0247 46.0796 46.184 46.0796 36.5463C46.0796 26.9087 38.2388 19.0679 28.6011 19.0679ZM14.4611 38.1353H20.6888C20.8648 42.4636 21.7587 46.7681 23.3105 49.8055C18.5184 47.8864 15.0587 43.4478 14.4611 38.1353ZM20.689 34.9575H14.4612C15.0589 29.645 18.5186 25.2066 23.3106 23.2873C21.7589 26.3247 20.8649 30.6292 20.689 34.9575ZM28.6011 50.847C26.7806 50.847 24.2202 45.9242 23.8978 38.1355H33.3044C32.982 45.9242 30.4216 50.847 28.6011 50.847ZM23.8978 34.9575C24.2202 27.1688 26.7806 22.2459 28.6011 22.2459C30.4216 22.2459 32.982 27.1688 33.3044 34.9575H23.8978ZM33.8917 49.8056C35.4435 46.7681 36.3374 42.4638 36.5133 38.1355H42.7411C42.1435 43.4478 38.6838 47.8864 33.8917 49.8056ZM36.5133 34.9575C36.3374 30.6292 35.4435 26.3247 33.8917 23.2873C38.6838 25.2066 42.1436 29.6451 42.7411 34.9575H36.5133Z" fill="#ECD774"/>
<path d="M50.8465 9.53402H47.6687V6.25055C47.6687 2.7788 44.7309 -0.0346834 41.3128 0.00032317C40.8245 0.00538795 40.3971 0.0730176 39.893 0.200531L6.01549 9.56843C2.67093 9.74957 0 12.5012 0 15.8899V69.9142C0 73.4195 2.85044 76.27 6.35587 76.27H50.8467C54.3519 76.27 57.2025 73.4196 57.2025 69.9142V15.8899C57.2024 12.3846 54.352 9.53402 50.8465 9.53402ZM40.7092 3.27127C42.5635 2.79802 44.4906 4.30002 44.4906 6.25055V9.53402H18.0631L40.7092 3.27127ZM54.0245 69.9142C54.0245 71.666 52.5985 73.092 50.8467 73.092H6.35587C4.60405 73.092 3.17801 71.666 3.17801 69.9142V15.8899C3.17801 14.1381 4.60405 12.712 6.35587 12.712H50.8467C52.5985 12.712 54.0245 14.1381 54.0245 15.8899V69.9142Z" fill="#ECD774"/>
</svg>
